<svg width="128" height="55" viewBox="0 0 128 55" fill="none" xmlns="http://www.w3.org/2000/svg">
<path d="M16.5 11C20.8761 11 25.0729 12.7384 28.1673 15.8327C31.2616 18.9271 33 23.1239 33 27.5C33 31.8761 31.2616 36.0729 28.1673 39.1673C25.0729 42.2616 20.8761 44 16.5 44C12.1239 44 7.92709 42.2616 4.83274 39.1673C1.73839 36.0729 0 31.8761 0 27.5C0 23.1239 1.73839 18.9271 4.83274 15.8327C7.92709 12.7384 12.1239 11 16.5 11ZM3.09375 27.5C3.09375 31.0556 4.50619 34.4655 7.02035 36.9797C9.53451 39.4938 12.9444 40.9062 16.5 40.9062C20.0556 40.9062 23.4655 39.4938 25.9797 36.9797C28.4938 34.4655 29.9062 31.0556 29.9062 27.5C29.9062 23.9444 28.4938 20.5345 25.9797 18.0203C23.4655 15.5062 20.0556 14.0938 16.5 14.0938C12.9444 14.0938 9.53451 15.5062 7.02035 18.0203C4.50619 20.5345 3.09375 23.9444 3.09375 27.5ZM13.1567 21.7807L21.9512 27.0586C22.0272 27.1045 22.0901 27.1693 22.1337 27.2466C22.1773 27.3239 22.2002 27.4112 22.2002 27.5C22.2002 27.5888 22.1773 27.6761 22.1337 27.7534C22.0901 27.8307 22.0272 27.8955 21.9512 27.9414L13.1567 33.2193C13.0785 33.2664 12.9892 33.2919 12.8979 33.2932C12.8066 33.2945 12.7166 33.2715 12.6371 33.2266C12.5576 33.1817 12.4914 33.1165 12.4454 33.0377C12.3993 32.9589 12.3751 32.8692 12.375 32.7779V22.2241C12.3747 22.1327 12.3987 22.0427 12.4446 21.9636C12.4905 21.8845 12.5566 21.819 12.6362 21.7739C12.7158 21.7287 12.8059 21.7056 12.8974 21.7068C12.9888 21.708 13.0783 21.7335 13.1567 21.7807Z" fill="white"/>
<path d="M38.136 44V13.2H50.94C52.7 13.2 54.284 13.6253 55.692 14.476C57.1293 15.3267 58.2733 16.4853 59.124 17.952C59.9747 19.4187 60.4 21.0613 60.4 22.88C60.4 24.728 59.9747 26.4 59.124 27.896C58.2733 29.3627 57.1293 30.536 55.692 31.416C54.284 32.296 52.7 32.736 50.94 32.736H43.856V44H38.136ZM43.856 27.456H50.544C51.2773 27.456 51.9373 27.2507 52.524 26.84C53.14 26.4293 53.624 25.8867 53.976 25.212C54.3573 24.5373 54.548 23.7747 54.548 22.924C54.548 22.0733 54.3573 21.3253 53.976 20.68C53.624 20.0053 53.14 19.4773 52.524 19.096C51.9373 18.6853 51.2773 18.48 50.544 18.48H43.856V27.456ZM65.5284 44V11.44H70.9844V44H65.5284ZM85.6701 44.44C83.7634 44.44 82.0328 43.912 80.4781 42.856C78.9234 41.8 77.6768 40.3627 76.7381 38.544C75.7994 36.7253 75.3301 34.6573 75.3301 32.34C75.3301 30.0227 75.7994 27.9547 76.7381 26.136C77.6768 24.3173 78.9528 22.8947 80.5661 21.868C82.1794 20.8413 83.9981 20.328 86.0221 20.328C87.1954 20.328 88.2661 20.504 89.2341 20.856C90.2021 21.1787 91.0528 21.648 91.7861 22.264C92.5194 22.88 93.1208 23.584 93.5901 24.376C94.0888 25.168 94.4261 26.0187 94.6021 26.928L93.4141 26.62V20.812H98.8701V44H93.3701V38.456L94.6461 38.236C94.4408 39.028 94.0594 39.8053 93.5021 40.568C92.9741 41.3013 92.2994 41.9613 91.4781 42.548C90.6861 43.1053 89.7914 43.56 88.7941 43.912C87.8261 44.264 86.7848 44.44 85.6701 44.44ZM87.1661 39.644C88.4274 39.644 89.5421 39.336 90.5101 38.72C91.4781 38.104 92.2261 37.2533 92.7541 36.168C93.3114 35.0533 93.5901 33.7773 93.5901 32.34C93.5901 30.932 93.3114 29.6853 92.7541 28.6C92.2261 27.5147 91.4781 26.664 90.5101 26.048C89.5421 25.432 88.4274 25.124 87.1661 25.124C85.9048 25.124 84.7901 25.432 83.8221 26.048C82.8834 26.664 82.1501 27.5147 81.6221 28.6C81.0941 29.6853 80.8301 30.932 80.8301 32.34C80.8301 33.7773 81.0941 35.0533 81.6221 36.168C82.1501 37.2533 82.8834 38.104 83.8221 38.72C84.7901 39.336 85.9048 39.644 87.1661 39.644ZM108.149 54.12L113.077 42.724L113.121 46.332L101.681 20.812H107.929L114.309 35.948C114.514 36.3293 114.72 36.8427 114.925 37.488C115.13 38.104 115.306 38.72 115.453 39.336L114.353 39.688C114.558 39.1307 114.778 38.544 115.013 37.928C115.248 37.2827 115.468 36.6227 115.673 35.948L121.129 20.812H127.421L117.741 44L113.781 54.12H108.149Z" fill="url(#paint0_linear_74_6)"/>
<defs>
<linearGradient id="paint0_linear_74_6" x1="43.5" y1="2.19441e-06" x2="114.456" y2="94.8622" gradientUnits="userSpaceOnUse">
<stop stop-color="#02F5AC"/>
<stop offset="0.96411" stop-color="#0047FF"/>
</linearGradient>
</defs>
</svg>
